<svg width="87" height="40" viewBox="0 0 87 40" fill="none" xmlns="http://www.w3.org/2000/svg">
<path d="M86.5734 25.5021C86.1864 23.8245 84.3888 22.9169 82.7973 22.4177C85.1889 21.7027 86.5434 19.8887 86.5986 18.8506C86.6285 18.2846 86.2996 17.8811 85.7636 17.8241C84.9896 17.7418 83.967 17.648 82.9182 17.648C81.3509 17.648 80.2566 17.8608 79.6123 18.2933C79.5194 17.2155 79.173 15.7343 77.7228 15.7343C77.4373 15.7343 77.121 15.7981 76.7833 15.9249C75.334 16.4676 74.5097 17.618 74.4023 19.2501C74.3472 20.0754 74.4933 20.8194 74.589 21.2064L67.8901 26.844C67.1316 21.3651 64.5677 16.2451 60.6029 12.2939C61.3034 11.901 61.9294 11.3989 62.4702 10.7952C63.7763 9.33719 64.4362 7.45638 64.3288 5.50204C64.2214 3.54673 63.3593 1.75106 61.9004 0.443975C61.7852 0.341421 61.6236 0.309495 61.4776 0.360772C61.3334 0.412049 61.227 0.53879 61.2028 0.690687C61.1941 0.741964 60.3475 5.84163 58.5973 7.66826C58.1494 8.13653 57.4779 8.60189 56.5985 9.05274C52.9414 6.68915 48.7908 5.44012 44.5812 5.44012C40.1259 5.44012 35.7654 6.83041 31.9554 9.46199C30.8622 8.93277 30.0388 8.38227 29.5048 7.82499C27.6288 5.86582 26.7232 0.408179 26.7135 0.353999C26.6894 0.202103 26.5829 0.0753594 26.4378 0.0240822C26.2927 -0.027195 26.1311 0.00473272 26.016 0.107287C22.8107 2.97688 22.5388 7.91981 25.4094 11.1242C26.105 11.901 26.9564 12.5338 27.8968 12.9779C24.6508 16.4696 22.3985 20.8804 21.4939 25.5176L21.253 25.3666L13.9629 20.6278C14.8685 19.5355 17.2921 16.3235 16.4117 14.2095C16.134 13.5448 15.6009 13.1791 14.9082 13.1791C13.6911 13.1791 12.055 14.3662 11.1262 15.5659C10.9492 12.051 10.5206 8.98792 8.99291 8.98792C8.76554 8.98792 8.53238 9.06048 8.30018 9.20367C6.51805 10.2998 6.23361 12.7969 6.30907 14.8035C5.7518 13.9608 5.13067 13.3591 4.60919 12.9488C3.55462 12.1187 2.34331 11.6214 1.37001 11.6214C0.841763 11.6214 0.439285 11.7753 0.205151 12.0665C0.0745395 12.229 -0.0618775 12.5096 0.0300345 12.9237C0.874657 16.7211 1.817 18.9193 2.94897 19.6807C2.05984 20.0493 0.946252 20.6578 0.672451 21.6428C0.493464 22.2861 0.693736 22.9711 1.26843 23.6774C2.11789 24.7233 3.19664 25.2525 4.47471 25.2525C6.02366 25.2525 7.41395 24.4601 7.95672 24.106L21.0382 32.0753V39.5782C21.0382 39.8113 21.2269 40 21.46 40H66.7378C66.9536 40 67.1355 39.8365 67.1577 39.6217L67.7856 33.4936L70.1134 31.5934L75.8139 27.0743C76.4979 28.1782 78.3797 30.8688 80.3195 30.7304C81.0413 30.6792 81.5337 30.2341 81.673 29.5075C81.8578 28.54 81.4089 27.1604 80.7926 26.1745C82.0068 26.5151 83.7115 26.9398 84.8996 26.9398C85.6407 26.9398 86.1313 26.7753 86.4012 26.4367C86.5395 26.2664 86.6798 25.9626 86.5734 25.5021ZM32.0135 20.296C32.0135 17.6528 34.1565 15.5098 36.7997 15.5098C39.4429 15.5098 41.5859 17.6528 41.5859 20.296C41.5859 22.9392 39.4429 25.0822 36.7997 25.0822C34.1565 25.0822 32.0135 22.9392 32.0135 20.296ZM44.0985 37.6538C39.1768 37.6538 35.1878 33.6629 35.1878 28.7413H37.5959L39.4022 31.3903L41.2085 28.7413H46.6275L48.1929 31.3903L49.6374 28.7413H53.01C53.01 33.6629 49.0191 37.6538 44.0985 37.6538ZM50.7684 23.8786C48.1242 23.8786 45.9812 21.7356 45.9812 19.0915C45.9812 16.4483 48.1242 14.3053 50.7684 14.3053C53.4106 14.3053 55.5536 16.4473 55.5536 19.0915C55.5536 21.7356 53.4106 23.8786 50.7684 23.8786Z" fill="#E84545"/>
<g opacity="0.9">
<path opacity="0.9" d="M36.9341 22.9624C38.0317 22.9624 38.9214 22.0727 38.9214 20.9752C38.9214 19.8777 38.0317 18.9879 36.9341 18.9879C35.8366 18.9879 34.9469 19.8777 34.9469 20.9752C34.9469 22.0727 35.8366 22.9624 36.9341 22.9624Z" fill="#F2F2F2"/>
</g>
<g opacity="0.9">
<path opacity="0.9" d="M50.7684 21.0787C51.8659 21.0787 52.7556 20.189 52.7556 19.0915C52.7556 17.9939 51.8659 17.1042 50.7684 17.1042C49.6708 17.1042 48.7811 17.9939 48.7811 19.0915C48.7811 20.189 49.6708 21.0787 50.7684 21.0787Z" fill="#F2F2F2"/>
</g>
</svg>
